<?xml version="1.0" encoding="UTF-8"?>
<svg version="1.1" xmlns="http://www.w3.org/2000/svg" width="500" height="500">
<path d="M0 0 C165 0 330 0 500 0 C500 165 500 330 500 500 C335 500 170 500 0 500 C0 335 0 170 0 0 Z " fill="#FEFEFE" transform="translate(0,0)"/>
<path d="M0 0 C5.75871229 0.29780229 9.30658242 1.13503456 13.30810547 5.41918945 C16.43877881 9.46444152 19.06960977 13.79093677 21.61425781 18.22290039 C23.40395032 21.24557653 25.42060622 23.80693799 27.68310547 26.4934082 C28.37533203 27.32356445 29.06755859 28.1537207 29.78076172 29.0090332 C33.2546237 33.00366815 36.832713 36.89778677 40.43701172 40.7746582 C42.53671813 43.05708716 44.5595757 45.37338702 46.55810547 47.7434082 C58.75413439 61.69405449 79.00287971 78.23290899 98.20654297 79.8215332 C104.78908359 79.78902683 110.63629345 79.2804674 116.99560547 77.5559082 C109.90697392 86.2803778 99.57872381 97.77513717 87.95654297 99.93481445 C70.36483936 101.18377226 51.9824265 85.0958974 39.37060547 74.2434082 C29.13957176 65.24101262 19.4472342 55.75326843 10.99169922 45.0480957 C9.13488379 42.72980168 7.19646092 40.5505726 5.18310547 38.3684082 C-3.57072312 28.61664316 -11.25415905 17.77460942 -18.00439453 6.5559082 C-14.05924435 -0.63406965 -7.33511938 0.13104559 0 0 Z " fill="#020202" transform="translate(273.00439453125,311.444091796875)"/>
<path d="M0 0 C-2.74871773 1.62717634 -5.49919546 3.25135439 -8.25 4.875 C-9.02730469 5.33519531 -9.80460937 5.79539062 -10.60546875 6.26953125 C-11.35957031 6.71425781 -12.11367187 7.15898438 -12.890625 7.6171875 C-13.58188477 8.02565918 -14.27314453 8.43413086 -14.98535156 8.85498047 C-20.51897655 12 -20.51897655 12 -24 12 C-24.01030746 12.70203552 -24.02061493 13.40407104 -24.03123474 14.12738037 C-24.13102631 20.88813159 -24.23372296 27.64883376 -24.33933926 34.40949631 C-24.39348685 37.88153837 -24.44667733 41.35358842 -24.49731445 44.82568359 C-24.77145454 63.56216205 -25.24620855 82.27554846 -26 101 C-26.82047821 101.19539871 -27.64095642 101.39079742 -28.48629761 101.59211731 C-29.56444733 101.85409409 -30.64259705 102.11607086 -31.75341797 102.38598633 C-32.82139618 102.64326004 -33.88937439 102.90053375 -34.98971558 103.16560364 C-38.80431366 104.22294119 -41.71308634 105.68813536 -45.125 107.6875 C-50.8447205 111 -50.8447205 111 -53 111 C-53 80.31 -53 49.62 -53 18 C-60.59 18.99 -68.18 19.98 -76 21 C-77.32 20.67 -78.64 20.34 -80 20 C-74.71407249 15.30139777 -69.11457854 11.82116222 -62.8125 8.6875 C-62.13574219 8.35041016 -61.45898438 8.01332031 -60.76171875 7.66601562 C-52.71015892 3.758641 -46.0548803 2.69208347 -37.125 2.5 C-26.17215102 2.16937195 -15.48178311 1.41666899 -4.69921875 -0.625 C-2 -1 -2 -1 0 0 Z " fill="#020202" transform="translate(262,115)"/>
<path d="M0 0 C7.26 0 14.52 0 22 0 C22.06637641 10.0007124 22.06763924 19.99939327 22 30 C21.99482361 30.78080933 21.98964722 31.56161865 21.98431396 32.36608887 C21.94818422 37.17122284 21.88468019 41.97504887 21.79147339 46.77941895 C21.76413709 48.32545885 21.7432524 49.87162826 21.72927856 51.41784668 C21.60597417 64.00002553 20.21559784 74.95871375 12 85 C15.14575207 85.05896868 18.2913586 85.09391603 21.4375 85.125 C22.31599609 85.14175781 23.19449219 85.15851563 24.09960938 85.17578125 C29.34053912 85.2144597 33.95966483 84.76387221 39.01196289 83.33544922 C41.29603308 82.95004919 42.81216624 83.30001568 45 84 C42.52727633 85.75972973 40.04743782 87.5076618 37.5625 89.25 C36.53092773 89.98669922 36.53092773 89.98669922 35.47851562 90.73828125 C33.35315619 92.22109016 31.19678492 93.62543677 29 95 C28.04661743 95.61536621 28.04661743 95.61536621 27.07397461 96.24316406 C19.49195645 100.39169396 10.80968004 99.43383244 2.4375 99.25 C0.84051722 99.22990197 -0.75649002 99.21165705 -2.35351562 99.1953125 C-6.23628881 99.15158265 -10.11787022 99.0827407 -14 99 C-12.62163754 96.14760656 -11.17148896 93.9176139 -9.125 91.5 C-2.4402678 82.75591265 -0.9345367 71.69231543 -0.79467773 60.96313477 C-0.78477814 60.29886978 -0.77487854 59.6346048 -0.76467896 58.95021057 C-0.73339256 56.78064389 -0.70843836 54.61105541 -0.68359375 52.44140625 C-0.66299574 50.92682871 -0.64199857 49.41225655 -0.62062073 47.89768982 C-0.56569384 43.9308816 -0.51615627 39.96402406 -0.46777344 35.99713135 C-0.41734246 31.94140282 -0.36176966 27.88574503 -0.30664062 23.83007812 C-0.19941899 15.8867772 -0.09837145 7.94341546 0 0 Z " fill="#060606" transform="translate(230,312)"/>
<path d="M0 0 C-0.54003662 0.24532471 -1.08007324 0.49064941 -1.63647461 0.7434082 C-4.09314658 1.88981983 -6.51311462 3.09939245 -8.9375 4.3125 C-10.21270508 4.88967773 -10.21270508 4.88967773 -11.51367188 5.47851562 C-16.19221566 7.86122594 -16.19221566 7.86122594 -18.76977539 12.22338867 C-19.06790838 15.17548989 -19.05425928 18.03287406 -19 21 C-19.07198433 22.98549509 -19.14452939 24.97099698 -19.22950745 26.95597839 C-19.37621389 30.53208649 -19.46459537 34.10978498 -19.5625 37.6875 C-19.60581078 39.17904546 -19.64942848 40.67058205 -19.69335938 42.16210938 C-19.79966939 45.7746441 -19.89970576 49.38727352 -20 53 C-27.59 53 -35.18 53 -43 53 C-43 40.13 -43 27.26 -43 14 C-43.99 14.33 -44.98 14.66 -46 15 C-47.33363703 15.14403348 -48.67218046 15.24590423 -50.01171875 15.31640625 C-50.76904297 15.35830078 -51.52636719 15.40019531 -52.30664062 15.44335938 C-53.09232422 15.48267578 -53.87800781 15.52199219 -54.6875 15.5625 C-55.48478516 15.60568359 -56.28207031 15.64886719 -57.10351562 15.69335938 C-59.06881447 15.79927368 -61.03438496 15.90012551 -63 16 C-59.49161008 12.20414423 -56.13448377 9.70888725 -51.5625 7.3125 C-50.47066406 6.73113281 -49.37882813 6.14976562 -48.25390625 5.55078125 C-41.4672848 2.31634102 -35.85633731 1.68045479 -28.4375 1.5 C-20.95760311 1.25417019 -13.81460551 0.74387722 -6.4609375 -0.6953125 C-3.93844804 -1.00762072 -2.41250781 -0.67825861 0 0 Z " fill="#040404" transform="translate(273,223)"/>
<path d="M0 0 C4.29 0 8.58 0 13 0 C13.25074639 5.54573869 13.43025577 11.08805309 13.54931641 16.63818359 C13.59903006 18.51800103 13.66683336 20.39744389 13.75439453 22.27587891 C14.40939721 36.7090555 12.04083512 45.67719943 3 57 C2.52740753 57.60755127 2.05481506 58.21510254 1.56790161 58.84106445 C-11.44068676 75.51526741 -28.45505737 89.58017246 -48 98 C-48.66 97.67 -49.32 97.34 -50 97 C-49.26136719 96.55011719 -48.52273437 96.10023438 -47.76171875 95.63671875 C-24.43762292 80.84799725 -11.43211388 57.40455841 -5 31 C-3.103697 22.08622894 -1.80044878 13.06406683 -1.2109375 3.96875 C-1 2 -1 2 0 0 Z " fill="#0A0A0A" transform="translate(208,313)"/>
<path d="M0 0 C-17.14014252 11 -17.14014252 11 -24 11 C-24.33257812 12.00933594 -24.33257812 12.00933594 -24.671875 13.0390625 C-26.39796167 16.88722043 -28.71389691 20.02099653 -31.25 23.375 C-31.77215088 24.06964355 -32.29430176 24.76428711 -32.83227539 25.47998047 C-38.25046043 32.54926215 -44.28134915 38.98451208 -50.4909668 45.35791016 C-51.97144111 46.96892297 -53.24391918 48.65088974 -54.546875 50.40625 C-57 53 -57 53 -59.89453125 53.5859375 C-60.85746094 53.51632812 -61.82039063 53.44671875 -62.8125 53.375 C-63.78832031 53.32085937 -64.76414062 53.26671875 -65.76953125 53.2109375 C-66.50558594 53.14132812 -67.24164063 53.07171875 -68 53 C-66.824375 51.63875 -66.824375 51.63875 -65.625 50.25 C-65.07714844 49.60675781 -64.52929688 48.96351563 -63.96484375 48.30078125 C-62.5500151 46.64405346 -61.12416407 44.99671587 -59.69140625 43.35546875 C-51.9302905 34.31092356 -45.19012748 24.77073478 -40 14 C-41.73636719 14.2165625 -41.73636719 14.2165625 -43.5078125 14.4375 C-45.04685211 14.62518776 -46.58591591 14.81267727 -48.125 15 C-48.88554687 15.09539062 -49.64609375 15.19078125 -50.4296875 15.2890625 C-54.64909952 15.79830188 -58.74004344 16.10888068 -63 16 C-59.09840719 11.6240959 -55.14459371 9.24561815 -49.875 6.75 C-49.15957031 6.399375 -48.44414062 6.04875 -47.70703125 5.6875 C-43.02950766 3.41431096 -39.32231222 1.89744149 -34.1328125 1.75390625 C-32.68890137 1.7062915 -32.68890137 1.7062915 -31.21582031 1.65771484 C-30.19584961 1.62629395 -29.17587891 1.59487305 -28.125 1.5625 C-20.38238652 1.28899031 -12.94095636 0.79061448 -5.328125 -0.6953125 C-3 -1 -3 -1 0 0 Z " fill="#070707" transform="translate(364,223)"/>
<path d="M0 0 C3.13051597 2.72916777 3.90170097 4.32419415 4.5 8.4375 C3.82578672 13.24126965 2.08448038 16.41867006 -1.8125 19.375 C-5.04668866 20.2990539 -7.65639578 20.35824331 -11 20 C-14.48985045 17.24485491 -15.83362688 15.21214701 -16.4375 10.8125 C-15.8661751 5.83381162 -13.74961876 3.22959864 -10 0 C-6.16652698 -1.27782434 -3.91272241 -0.96101954 0 0 Z " fill="#F8F8F8" transform="translate(289,284)"/>
<path d="M0 0 C0 9.24 0 18.48 0 28 C-3.63 28 -7.26 28 -11 28 C-11 19.09 -11 10.18 -11 1 C-5 0 -5 0 0 0 Z " fill="#020202" transform="translate(220,248)"/>
<path d="M0 0 C0.99 0.33 1.98 0.66 3 1 C2.91308261 3.77236494 2.80622639 6.54147078 2.6875 9.3125 C2.66494141 10.09818359 2.64238281 10.88386719 2.61914062 11.69335938 C2.58369141 12.45068359 2.54824219 13.20800781 2.51171875 13.98828125 C2.48553467 14.68477783 2.45935059 15.38127441 2.43237305 16.09887695 C1.88776232 18.49350359 0.84170838 19.43272547 -1 21 C-2.0847278 19.77206376 -3.16770815 18.5425838 -4.25 17.3125 C-4.85328125 16.62800781 -5.4565625 15.94351562 -6.078125 15.23828125 C-8.10891383 12.87315524 -10.05260155 10.43424806 -12 8 C-12.33 12.29 -12.66 16.58 -13 21 C-13.66 21 -14.32 21 -15 21 C-14.67 14.4 -14.34 7.8 -14 1 C-13.34 1 -12.68 1 -12 1 C-10.921875 2.5390625 -10.921875 2.5390625 -9.75 4.625 C-7.29300538 8.74688351 -4.505877 11.73871907 -1 15 C-1.01160156 14.00097656 -1.02320313 13.00195312 -1.03515625 11.97265625 C-1.04417969 10.68230469 -1.05320313 9.39195312 -1.0625 8.0625 C-1.07410156 6.77472656 -1.08570313 5.48695313 -1.09765625 4.16015625 C-1 1 -1 1 0 0 Z " fill="#171717" transform="translate(222,283)"/>
<path d="M0 0 C1.2065625 0.0309375 1.2065625 0.0309375 2.4375 0.0625 C2.4375 2.7025 2.4375 5.3425 2.4375 8.0625 C3.0975 8.3925 3.7575 8.7225 4.4375 9.0625 C5.05625 10.01125 5.675 10.96 6.3125 11.9375 C8.24635819 14.7814091 9.60584024 16.23562273 12.4375 18.0625 C13.4275 18.7225 14.4175 19.3825 15.4375 20.0625 C13.375 20.9375 13.375 20.9375 10.4375 21.0625 C6.66861233 18.65235295 3.90934885 15.77027328 1.4375 12.0625 C0.7775 14.7025 0.1175 17.3425 -0.5625 20.0625 C0.0975 20.3925 0.7575 20.7225 1.4375 21.0625 C0.1175 21.0625 -1.2025 21.0625 -2.5625 21.0625 C-2.2325 14.7925 -1.9025 8.5225 -1.5625 2.0625 C-2.2225 1.7325 -2.8825 1.4025 -3.5625 1.0625 C-2.5625 0.0625 -2.5625 0.0625 0 0 Z " fill="#262626" transform="translate(254.5625,282.9375)"/>
<path d="M0 0 C0.80179687 0.00451172 1.60359375 0.00902344 2.4296875 0.01367188 C4.41149006 0.02546832 6.39325433 0.04340395 8.375 0.0625 C8.045 0.7225 7.715 1.3825 7.375 2.0625 C4.735 2.0625 2.095 2.0625 -0.625 2.0625 C-0.625 7.6725 -0.625 13.2825 -0.625 19.0625 C0.035 19.3925 0.695 19.7225 1.375 20.0625 C1.045 20.3925 0.715 20.7225 0.375 21.0625 C-1.275 21.0625 -2.925 21.0625 -4.625 21.0625 C-4.13 12.1525 -4.13 12.1525 -3.625 3.0625 C-5.935 3.0625 -8.245 3.0625 -10.625 3.0625 C-10.625 2.4025 -10.625 1.7425 -10.625 1.0625 C-7.31505287 -0.59247356 -3.63377 -0.03834335 0 0 Z " fill="#434343" transform="translate(323.625,282.9375)"/>
<path d="M0 0 C0.33 0 0.66 0 1 0 C1 0.721875 1 1.44375 1 2.1875 C2.54417657 6.5304966 6.07053045 7.89652541 10 10 C9.68762196 12.88949684 9.35661121 14.58633099 7.4375 16.8125 C3.8580787 18.55632063 0.95820158 18.19791008 -3 18 C-2.505 16.515 -2.505 16.515 -2 15 C0.64 15 3.28 15 6 15 C6 13.68 6 12.36 6 11 C4.25522367 9.42481549 4.25522367 9.42481549 2 8.25 C1.2575 7.82203125 0.515 7.3940625 -0.25 6.953125 C-0.8275 6.63859375 -1.405 6.3240625 -2 6 C-1.125 1.125 -1.125 1.125 0 0 Z " fill="#252525" transform="translate(300,286)"/>
<path d="M0 0 C-0.0603174 2.87714013 -0.14745596 5.74930854 -0.25 8.625 C-0.26417969 9.43324219 -0.27835938 10.24148438 -0.29296875 11.07421875 C-0.5183328 16.61817447 -1.49757365 19.67100103 -5 24 C-5 21.43002129 -4.91198024 18.8976122 -4.78125 16.33203125 C-4.73613281 15.43935547 -4.69101563 14.54667969 -4.64453125 13.62695312 C-4.59683594 12.69818359 -4.54914063 11.76941406 -4.5 10.8125 C-4.45230469 9.87212891 -4.40460938 8.93175781 -4.35546875 7.96289062 C-4.23765156 5.64189202 -4.11913586 3.32093123 -4 1 C-4.66 0.67 -5.32 0.34 -6 0 C-3.50907189 -1.24546405 -2.58919267 -0.7767578 0 0 Z " fill="#373737" transform="translate(176,284)"/>
<path d="M0 0 C3.13051597 2.72916777 3.90170097 4.32419415 4.5 8.4375 C3.92103132 12.56265185 2.53936964 14.74643266 0 18 C-0.66 17.67 -1.32 17.34 -2 17 C-1.34 16.34 -0.68 15.68 0 15 C0.39501229 12.66761933 0.39501229 12.66761933 0.375 10.0625 C0.40335937 9.18722656 0.43171875 8.31195313 0.4609375 7.41015625 C0.21255931 4.85989807 0.21255931 4.85989807 -1.86328125 3.1953125 C-4.46074464 1.74225254 -6.06260583 1.7740466 -9 2 C-9.99 2 -10.98 2 -12 2 C-7.75834686 -1.21337359 -5.10471173 -1.48500705 0 0 Z " fill="#232323" transform="translate(289,284)"/>
<path d="M0 0 C-0.33 6.6 -0.66 13.2 -1 20 C-2.32 19.67 -3.64 19.34 -5 19 C-4.505 10.09 -4.505 10.09 -4 1 C-4.66 0.67 -5.32 0.34 -6 0 C-4 -1 -4 -1 0 0 Z " fill="#313131" transform="translate(236,284)"/>
<path d="M0 0 C1.32 0.33 2.64 0.66 4 1 C3.98839844 1.98742187 3.97679687 2.97484375 3.96484375 3.9921875 C3.95582031 5.27351563 3.94679687 6.55484375 3.9375 7.875 C3.92589844 9.15117187 3.91429687 10.42734375 3.90234375 11.7421875 C3.76823431 14.88664652 3.76823431 14.88664652 5 17 C6.89533342 17.46523063 6.89533342 17.46523063 9.0625 17.625 C10.361875 17.74875 11.66125 17.8725 13 18 C10.67471713 20.32528287 10.15334102 20.29511025 7 20.3125 C6.29875 20.32925781 5.5975 20.34601563 4.875 20.36328125 C4.25625 20.24339844 3.6375 20.12351562 3 20 C1.0243438 17.03651571 0.73623141 16.31979627 0.5859375 12.98828125 C0.52792969 11.85229492 0.52792969 11.85229492 0.46875 10.69335938 C0.42234375 9.51483398 0.42234375 9.51483398 0.375 8.3125 C0.31699219 7.11657227 0.31699219 7.11657227 0.2578125 5.89648438 C0.16367506 3.93136525 0.08075368 1.9657146 0 0 Z " fill="#161616" transform="translate(182,284)"/>
<path d="M0 0 C1 2 1 2 0.5 5.375 C-0.24181433 9.08906224 -0.24181433 9.08906224 1 13 C4.3 13.66 7.6 14.32 11 15 C9 17 9 17 5.625 17.375 C2 17 2 17 -0.375 15.125 C-3.27618865 11.33113792 -3.32903237 8.77096942 -3 4 C-1.5 1.5625 -1.5 1.5625 0 0 Z " fill="#1F1F1F" transform="translate(276,287)"/>
<path d="M0 0 C0.99 0.33 1.98 0.66 3 1 C2.67 6.61 2.34 12.22 2 18 C-0.83293634 15.16706366 -0.49317603 12.2427167 -0.6875 8.4375 C-0.73455078 7.73947266 -0.78160156 7.04144531 -0.83007812 6.32226562 C-0.93491375 4.55037178 -0.97276011 2.77478345 -1 1 C-0.67 0.67 -0.34 0.34 0 0 Z " fill="#4B4B4B" transform="translate(222,283)"/>
<path d="M0 0 C0.66 0.99 1.32 1.98 2 3 C0.09598862 4.90401138 -1.33425686 5.93520439 -4.046875 6.19921875 C-6.03233273 6.1886578 -8.0169914 6.09915043 -10 6 C-9.67 5.01 -9.34 4.02 -9 3 C-6.36 3 -3.72 3 -1 3 C-0.67 2.01 -0.34 1.02 0 0 Z " fill="#4E4E4E" transform="translate(307,298)"/>
<path d="M0 0 C-0.99 1.485 -0.99 1.485 -2 3 C-3.093125 2.835 -4.18625 2.67 -5.3125 2.5 C-8.87525873 1.93281816 -8.87525873 1.93281816 -12 2 C-7.72424275 -1.23921004 -5.16347713 -1.11369115 0 0 Z " fill="#444444" transform="translate(289,284)"/>
<path d="M0 0 C-0.61875 0.598125 -1.2375 1.19625 -1.875 1.8125 C-4.13676954 4.00811144 -4.13676954 4.00811144 -6 7 C-6.66 6.67 -7.32 6.34 -8 6 C-7.01 4.68 -6.02 3.36 -5 2 C-5.33 1.34 -5.66 0.68 -6 0 C-3.50907189 -1.24546405 -2.58919267 -0.7767578 0 0 Z " fill="#5F5F5F" transform="translate(267,284)"/>
</svg>
