<?xml version="1.0" encoding="UTF-8"?>
<svg version="1.1" xmlns="http://www.w3.org/2000/svg" width="500" height="500">
<path d="M0 0 C165 0 330 0 500 0 C500 165 500 330 500 500 C335 500 170 500 0 500 C0 335 0 170 0 0 Z " fill="#FEFEFE" transform="translate(0,0)"/>
<path d="M0 0 C7.7016329 -0.18585952 15.4030317 -0.32775613 23.10640049 -0.41449738 C26.68412888 -0.45614449 30.26031659 -0.51256595 33.8371582 -0.60351562 C37.29323741 -0.69083846 40.74784122 -0.73835288 44.20493889 -0.75901794 C46.15678018 -0.78086247 48.10803238 -0.84325593 50.05897522 -0.90637207 C58.77332667 -0.91075748 58.77332667 -0.91075748 62.30844116 1.71392822 C64.08524903 3.72607852 65.54464982 5.74878938 67 8 C67.95439819 9.15266042 68.92083066 10.29561984 69.90625 11.421875 C77.78853075 21.27691627 77.78853075 21.27691627 77.375 27.8125 C76.98886668 29.88972814 76.5198245 31.95213326 76 34 C75.66447442 35.50834153 75.33270101 37.01752072 75.00390625 38.52734375 C74.07374708 42.70443946 73.05637178 46.85312659 72 51 C70.00977596 49.95835936 68.03304907 48.8908985 66.0625 47.8125 C64.96035156 47.22082031 63.85820312 46.62914062 62.72265625 46.01953125 C60 44 60 44 58.99609375 41.82421875 C59 39 59 39 61 30 C51.76 30 42.52 30 33 30 C32.67 32.97 32.34 35.94 32 39 C31.67672714 41.33474843 31.34721607 43.66869209 31 46 C31.6496875 46.20496094 32.299375 46.40992188 32.96875 46.62109375 C37.22690058 48.55811328 40.75345275 51.28317282 44.5 54.0625 C46.10080445 55.2354103 47.70237335 56.40727795 49.3046875 57.578125 C50.09456055 58.15626953 50.88443359 58.73441406 51.69824219 59.33007812 C56.7320776 62.98211824 61.86653067 66.49001302 67 70 C66.47537315 77.48185913 65.08683588 84.53542001 63.3125 91.8125 C60.76622745 102.52925498 58.4415202 113.27492623 56.26879883 124.07348633 C54.03460293 135.09182388 51.51922467 146.04386629 49 157 C39.58571037 157.11598358 30.17166766 157.20476032 20.75681877 157.25906086 C16.38482251 157.28512603 12.01331598 157.32046689 7.64160156 157.37719727 C3.42053559 157.43162831 -0.80006013 157.46144371 -5.02145004 157.47438622 C-6.62981441 157.48360633 -8.23815379 157.5016116 -9.84631729 157.52865028 C-12.10399707 157.56509091 -14.359748 157.5699395 -16.61767578 157.56762695 C-17.90118927 157.57873001 -19.18470276 157.58983307 -20.5071106 157.60127258 C-25.11442741 156.80816036 -26.7161086 155.26926987 -30 152 C-32.73295226 146.53409549 -30.63956469 139.14507316 -29.390625 133.43359375 C-29.22254333 132.63703873 -29.05446167 131.8404837 -28.88128662 131.01979065 C-28.52527332 129.34074633 -28.16536741 127.6625231 -27.80175781 125.98510742 C-27.25713417 123.47044028 -26.72517104 120.95336165 -26.1953125 118.43554688 C-24.09216673 108.53475795 -21.72297496 98.74938645 -19 89 C-15.6181803 90.276046 -12.57658538 91.73477273 -9.48828125 93.609375 C-8.22661133 94.37121094 -8.22661133 94.37121094 -6.93945312 95.1484375 C-6.07255859 95.67695313 -5.20566406 96.20546875 -4.3125 96.75 C-3.46494141 97.26304687 -2.61738281 97.77609375 -1.74414062 98.3046875 C-0.03516681 99.33916899 1.67300787 100.37497183 3.38037109 101.41210938 C7.57788991 103.95643951 11.78882123 106.47836306 16 109 C14.125 120.375 14.125 120.375 13 126 C22.24 126 31.48 126 41 126 C41.33 122.37 41.66 118.74 42 115 C42.31225906 113.09681521 42.65280157 111.19711276 43.0625 109.3125 C43.32740234 108.06919922 43.32740234 108.06919922 43.59765625 106.80078125 C43.73042969 106.20652344 43.86320312 105.61226563 44 105 C43.41927734 104.7225293 42.83855469 104.44505859 42.24023438 104.15917969 C40.0881528 103.0456135 38.15202974 101.82435476 36.15625 100.453125 C35.41463623 99.94499268 34.67302246 99.43686035 33.90893555 98.91333008 C33.11398682 98.36443115 32.31903809 97.81553223 31.5 97.25 C30.66702393 96.67725342 29.83404785 96.10450684 28.97583008 95.5144043 C22.01886963 90.72235164 15.06403625 85.92399366 8.17895508 81.02905273 C4.37819084 78.32887697 0.57837817 75.70384607 -3.40625 73.28125 C-4.40338013 72.64932739 -4.40338013 72.64932739 -5.4206543 72.00463867 C-7.17600774 70.89851003 -8.95629458 69.83222113 -10.73828125 68.76953125 C-13.25472266 65.68808572 -13.351726 65.24156058 -13.12890625 61.46875 C-11.79105953 52.4621882 -9.63450176 43.56306355 -7.625 34.6875 C-7.22070826 32.88100381 -6.81705819 31.07436389 -6.4140625 29.26757812 C-5.8404985 26.69621919 -5.26623344 24.12505946 -4.68643188 21.55509949 C-3.06996456 14.38167457 -1.53228915 7.19182369 0 0 Z " fill="#020202" transform="translate(176,146)"/>
<path d="M0 0 C0.95690735 -0.02302689 1.9138147 -0.04605377 2.89971924 -0.06977844 C12.84825814 -0.22723975 22.77917946 0.36853351 32.69140625 1.1640625 C31.36865161 4.71615227 29.79470974 7.81757022 27.77734375 11.0234375 C27.18937012 11.96155273 26.60139648 12.89966797 25.99560547 13.86621094 C25.35896973 14.87200195 24.72233398 15.87779297 24.06640625 16.9140625 C23.4027002 17.96883789 22.73899414 19.02361328 22.05517578 20.11035156 C17.25278927 27.72886202 12.41488875 35.32482586 7.56640625 42.9140625 C6.57809814 44.46625488 6.57809814 44.46625488 5.56982422 46.04980469 C2.38100775 51.04024347 -0.85048319 55.98771399 -4.20703125 60.8671875 C-4.81530762 61.7634082 -5.42358398 62.65962891 -6.05029297 63.58300781 C-7.18282424 65.24547943 -8.33176199 66.89695099 -9.50048828 68.53417969 C-14.56494507 76.01344462 -13.90112688 82.06716363 -12.30859375 90.7265625 C-12.03015625 92.27537109 -12.03015625 92.27537109 -11.74609375 93.85546875 C-11.60171875 94.61730469 -11.45734375 95.37914062 -11.30859375 96.1640625 C-7.13233747 94.76198005 -4.38547197 92.78999676 -1.12109375 89.8515625 C-0.26128906 89.09230469 0.59851563 88.33304687 1.484375 87.55078125 C3.71466725 85.13890768 4.7077338 83.26895039 5.69140625 80.1640625 C7.96634872 83.5764762 7.85920747 85.15320945 7.22265625 89.1171875 C5.63008875 95.2532564 0.41858615 100.16495272 -4.30859375 104.1640625 C-7.24609375 105.6015625 -7.24609375 105.6015625 -9.30859375 106.1640625 C-8.97859375 106.8240625 -8.64859375 107.4840625 -8.30859375 108.1640625 C-0.6155744 102.44751057 5.52198833 96.88895556 9.69140625 88.1640625 C11.69924784 92.17974568 11.29929219 96.80853021 10.69140625 101.1640625 C7.57960626 107.80103813 0.63881763 114.44584361 -6.0546875 117.359375 C-7.17037109 117.75769531 -7.17037109 117.75769531 -8.30859375 118.1640625 C-8.11523438 118.90527344 -7.921875 119.64648438 -7.72265625 120.41015625 C-5.44773667 129.61119239 -4.26714648 138.74769153 -3.30859375 148.1640625 C-2.20837891 148.56044922 -2.20837891 148.56044922 -1.0859375 148.96484375 C7.03437308 152.47108193 14.8436803 159.62618658 18.56640625 167.7265625 C20.51142839 173.57313792 20.28515121 180.09552634 19.69140625 186.1640625 C19.03140625 187.1540625 18.37140625 188.1440625 17.69140625 189.1640625 C17.56765625 188.49761719 17.44390625 187.83117187 17.31640625 187.14453125 C14.73923008 175.62777526 8.69355777 167.83894371 -1.109375 161.40625 C-3.36813477 160.03798045 -3.36813477 160.03798045 -6.30859375 159.1640625 C-6.30859375 159.8240625 -6.30859375 160.4840625 -6.30859375 161.1640625 C-5.58542969 161.421875 -4.86226563 161.6796875 -4.1171875 161.9453125 C3.28416929 165.15702783 9.79633647 171.04550415 13.69921875 178.1015625 C15.78613579 184.5430702 15.43164832 191.49476616 14.69140625 198.1640625 C14.03140625 199.1540625 13.37140625 200.1440625 12.69140625 201.1640625 C12.56765625 200.56980469 12.44390625 199.97554687 12.31640625 199.36328125 C9.57950099 188.36434323 2.68445316 179.86507622 -6.30859375 173.1640625 C-7.66404297 172.14892578 -7.66404297 172.14892578 -9.046875 171.11328125 C-12.99557117 168.30513345 -12.99557117 168.30513345 -17.30859375 166.1640625 C-22.84198221 167.30864011 -28.01701843 170.31789747 -33.09375 172.7734375 C-38.10602679 175.1640625 -38.10602679 175.1640625 -40.30859375 175.1640625 C-40.91577426 172.93567922 -41.519665 170.7065002 -42.12109375 168.4765625 C-42.30414063 167.80189941 -42.4871875 167.12723633 -42.67578125 166.43212891 C-44.13552148 160.98489898 -45.3314044 155.50663374 -46.40234375 149.96875 C-47.46169423 146.69024291 -49.04397172 144.73182291 -51.30859375 142.1640625 C-53.72637142 138.53739599 -53.52334917 135.45917096 -53.30859375 131.1640625 C-53.08171875 130.05417969 -52.85484375 128.94429688 -52.62109375 127.80078125 C-51.81090591 121.46685108 -53.69425687 115.36228317 -55.12109375 109.2265625 C-55.39501953 108.00259766 -55.66894531 106.77863281 -55.95117188 105.51757812 C-56.92405591 101.18042845 -57.89702583 96.84424264 -58.95458984 92.52685547 C-60.39088573 86.54461337 -61.58638723 81.55003085 -58.54296875 75.8671875 C-57.72978382 74.70554289 -56.90054747 73.55502782 -56.05859375 72.4140625 C-55.12645177 71.08505148 -54.19687608 69.75423776 -53.26953125 68.421875 C-52.7806543 67.72610352 -52.29177734 67.03033203 -51.78808594 66.31347656 C-49.3074365 62.70957596 -47.00076076 58.99935362 -44.68359375 55.2890625 C-41.27948019 49.86703506 -37.8614657 44.45464362 -34.41015625 39.0625 C-33.74024658 38.01167236 -33.07033691 36.96084473 -32.38012695 35.87817383 C-30.99718851 33.73245967 -29.59450938 31.59934304 -28.17260742 29.47924805 C-24.36711888 23.74684002 -21.33637121 18.48846649 -19.40893555 11.85717773 C-14.93984545 3.14063722 -9.61052079 -0.05644597 0 0 Z " fill="#2A723B" transform="translate(348.30859375,144.8359375)"/>
<path d="M0 0 C20.13 0 40.26 0 61 0 C58.70436357 13.7738186 58.70436357 13.7738186 57.1953125 20.1953125 C57.0316922 20.90679443 56.8680719 21.61827637 56.69949341 22.35131836 C55.81670391 26.18320973 54.91709277 30.0111327 54.01855469 33.83935547 C53.65513714 35.39279568 53.29217548 36.94634262 52.9296875 38.5 C52.75397217 39.25250031 52.57825684 40.00500061 52.3972168 40.78030396 C51.48470654 44.73577694 50.66224473 48.67929153 50.0078125 52.6875 C48.39669116 62.33093715 45.16689808 68.75605327 38.97558594 76.43603516 C35.80784947 80.16812352 35.80784947 80.16812352 35.01171875 84.8125 C35.98696457 87.20655994 35.98696457 87.20655994 38.125 89.6875 C42.87896529 98.08617202 37.1857062 112.03661982 35.1875 121.0625 C34.84001153 122.65549362 34.49300355 124.24859213 34.14648438 125.84179688 C33.79991319 127.42717827 33.4529205 129.0124676 33.10546875 130.59765625 C32.95426071 131.28787369 32.80305267 131.97809113 32.64726257 132.68922424 C30.84786084 140.81345915 28.90637273 148.89791592 27 157 C14.13 157 1.26 157 -12 157 C-10.87576149 146.88185342 -10.87576149 146.88185342 -9.87109375 142.33203125 C-9.64486328 141.29353027 -9.41863281 140.2550293 -9.18554688 139.18505859 C-8.93869141 138.07211426 -8.69183594 136.95916992 -8.4375 135.8125 C-7.89363716 133.32180965 -7.35072106 130.83091244 -6.80859375 128.33984375 C-6.66465179 127.68042786 -6.52070984 127.02101196 -6.37240601 126.34161377 C-5.232974 121.10960581 -4.12814737 115.87079631 -3.03515625 110.62890625 C-2.86877655 109.83127365 -2.70239685 109.03364105 -2.53097534 108.21183777 C-2.36348785 107.40885757 -2.19600037 106.60587738 -2.0234375 105.77856445 C0.56522179 93.36863711 3.17746732 80.97016524 6.0625 68.625 C8.22463552 59.35806163 10.37459904 50.08896651 12.44894409 40.80194092 C12.77192891 39.36276302 13.09814843 37.92430684 13.42776489 36.4866333 C13.88615188 34.48508151 14.33307144 32.48128748 14.77734375 30.4765625 C15.03765381 29.32236816 15.29796387 28.16817383 15.56616211 26.97900391 C16.08955711 23.38504452 15.89951075 21.39537097 13.94018555 18.35595703 C13.5100415 17.82856934 13.07989746 17.30118164 12.63671875 16.7578125 C12.16169922 16.16613281 11.68667969 15.57445312 11.19726562 14.96484375 C10.69904297 14.35769531 10.20082031 13.75054687 9.6875 13.125 C8.71007762 11.92102276 7.73478887 10.71531001 6.76171875 9.5078125 C6.32819092 8.97816895 5.89466309 8.44852539 5.44799805 7.90283203 C3.5104245 5.35664282 1.77480406 2.6622061 0 0 Z " fill="#2F6635" transform="translate(243,146)"/>
<path d="M0 0 C2.27494247 3.4124137 2.16780122 4.98914695 1.53125 8.953125 C-0.0613175 15.0891939 -5.2728201 20.00089022 -10 24 C-12.9375 25.4375 -12.9375 25.4375 -15 26 C-14.505 26.99 -14.505 26.99 -14 28 C-6.30698065 22.28344807 -0.16941792 16.72489306 4 8 C6.00784159 12.01568318 5.60788594 16.64446771 5 21 C3.49995653 24.1993547 1.47309491 26.50013999 -1 29 C-1.53367187 29.57105469 -2.06734375 30.14210937 -2.6171875 30.73046875 C-8.50311895 36.44636218 -15.82748032 40.1179962 -23.01220703 43.93652344 C-24.86420581 44.92734961 -26.69653007 45.94728607 -28.52734375 46.9765625 C-29.57019531 47.54117188 -30.61304688 48.10578125 -31.6875 48.6875 C-32.59886719 49.18636719 -33.51023437 49.68523437 -34.44921875 50.19921875 C-37 51 -37 51 -39.6875 50.23828125 C-42.01383665 48.99259085 -44.02611004 47.75456885 -46 46 C-46 45.34 -46 44.68 -46 44 C-31.645 37.07 -31.645 37.07 -17 30 C-17 29.34 -17 28.68 -17 28 C-17.48766846 28.27674561 -17.97533691 28.55349121 -18.4777832 28.83862305 C-40.4356302 41.26442152 -40.4356302 41.26442152 -46 43 C-46.99 42.67 -47.98 42.34 -49 42 C-50.35439668 39.29120665 -50.06501451 36.99066732 -50 34 C-49.00742187 33.50371094 -48.01484375 33.00742187 -46.9921875 32.49609375 C-46.34137207 32.17060547 -45.69055664 31.84511719 -45.02001953 31.50976562 C-43.5811518 30.79049553 -42.14202083 30.0717518 -40.70263672 29.35351562 C-37.09235948 27.55115842 -33.48606974 25.74194624 -29.890625 23.91015625 C-29.25527832 23.58797119 -28.61993164 23.26578613 -27.96533203 22.93383789 C-26.20735534 22.04178949 -24.45128548 21.14598621 -22.6953125 20.25 C-20 19 -20 19 -18 19 C-17.505 17.515 -17.505 17.515 -17 16 C-15.33919322 15.31886633 -13.67135277 14.65482987 -12 14 C-9.34023052 12.02591465 -9.34023052 12.02591465 -6.8125 9.6875 C-5.95269531 8.92824219 -5.09289062 8.16898438 -4.20703125 7.38671875 C-1.976739 4.97484518 -0.98367245 3.10488789 0 0 Z " fill="#8E908F" transform="translate(354,225)"/>
<path d="M0 0 C2.52692114 2.52692114 2.38257153 3.61193147 2.5 7.125 C2.36838992 13.4258324 0.34532969 16.60764293 -4 21 C-4.53367187 21.57105469 -5.06734375 22.14210937 -5.6171875 22.73046875 C-11.50311895 28.44636218 -18.82748032 32.1179962 -26.01220703 35.93652344 C-27.86420581 36.92734961 -29.69653007 37.94728607 -31.52734375 38.9765625 C-32.57019531 39.54117188 -33.61304688 40.10578125 -34.6875 40.6875 C-35.59886719 41.18636719 -36.51023437 41.68523437 -37.44921875 42.19921875 C-40 43 -40 43 -42.6875 42.23828125 C-45.01383665 40.99259085 -47.02611004 39.75456885 -49 38 C-49 37.34 -49 36.68 -49 36 C-48.1843457 35.62302979 -47.36869141 35.24605957 -46.52832031 34.85766602 C-43.43649091 33.42048605 -40.35113989 31.97080951 -37.26904297 30.51293945 C-35.94680157 29.8905107 -34.62232235 29.27280865 -33.29541016 28.66040039 C-21.07105954 23.01161972 -5.90997734 15.77494334 -0.625 2.5625 C-0.41875 1.716875 -0.2125 0.87125 0 0 Z " fill="#898A89" transform="translate(357,233)"/>
<path d="M0 0 C19.4 11.26666667 19.4 11.26666667 25 15 C24 18 24 18 22.35766602 19.07495117 C21.31630493 19.55411987 21.31630493 19.55411987 20.25390625 20.04296875 C19.49916016 20.39423828 18.74441406 20.74550781 17.96679688 21.10742188 C17.17337891 21.46384766 16.37996094 21.82027344 15.5625 22.1875 C14.77294922 22.55552734 13.98339844 22.92355469 13.16992188 23.30273438 C7.2999913 26 7.2999913 26 5 26 C2.48533829 17.33318919 0.37734702 9.07519588 0 0 Z " fill="#316837" transform="translate(303,294)"/>
<path d="M0 0 C2.92359734 2.21484647 2.96414507 3.7579792 3.5 7.375 C2.84053371 12.15613064 1.37565893 13.62434107 -2 17 C-4.84083641 18.42041821 -6.85477278 18.31452272 -10 18 C-12.375 16.5625 -12.375 16.5625 -14 14 C-14.94482587 9.26704051 -14.65732102 6.03899129 -12.0625 1.9375 C-7.97918064 -0.64582449 -4.71416895 -0.96281678 0 0 Z " fill="#3A6E3F" transform="translate(299,335)"/>
<path d="M0 0 C1.918125 -0.0825 3.83625 -0.165 5.8125 -0.25 C7.43091797 -0.31960938 7.43091797 -0.31960938 9.08203125 -0.390625 C12 0 12 0 13.90625 1.828125 C15.43295286 4.85972067 14.74475919 6.7501417 14 10 C14 11.32 14 12.64 14 14 C14 14.99 14 15.98 14 17 C12.25 17.75 12.25 17.75 10 18 C7.75 16.0625 7.75 16.0625 6 14 C6 15.32 6 16.64 6 18 C4.02 18 2.04 18 0 18 C0 12.06 0 6.12 0 0 Z " fill="#212121" transform="translate(250,335)"/>
<path d="M0 0 C1.2065625 0.0309375 1.2065625 0.0309375 2.4375 0.0625 C2.7675 1.3825 3.0975 2.7025 3.4375 4.0625 C4.4275 2.7425 5.4175 1.4225 6.4375 0.0625 C8.375 0.375 8.375 0.375 10.4375 1.0625 C10.7675 2.0525 11.0975 3.0425 11.4375 4.0625 C10.4475 5.5475 10.4475 5.5475 9.4375 7.0625 C9.69473969 9.09169843 9.69473969 9.09169843 10.4375 11.0625 C10.7675 12.0525 11.0975 13.0425 11.4375 14.0625 C10.4475 15.5475 10.4475 15.5475 9.4375 17.0625 C7.4375 16.0625 5.4375 15.0625 3.4375 14.0625 C3.1075 15.3825 2.7775 16.7025 2.4375 18.0625 C0.4575 18.0625 -1.5225 18.0625 -3.5625 18.0625 C-3.58934312 15.24993719 -3.60926188 12.43762759 -3.625 9.625 C-3.63337891 8.82255859 -3.64175781 8.02011719 -3.65039062 7.19335938 C-3.6590143 5.14954779 -3.6147815 3.10566098 -3.5625 1.0625 C-2.5625 0.0625 -2.5625 0.0625 0 0 Z " fill="#3B6F41" transform="translate(271.5625,334.9375)"/>
<path d="M0 0 C2.31 0 4.62 0 7 0 C7.83919398 2.26882087 8.67151724 4.53977027 9.5 6.8125 C9.73847656 7.45509766 9.97695312 8.09769531 10.22265625 8.75976562 C11.27068746 11.64933739 12 13.90076061 12 17 C8.37 16.67 4.74 16.34 1 16 C1 16.66 1 17.32 1 18 C-0.65 18 -2.3 18 -4 18 C-3.31195504 11.80759538 -1.71951285 5.98044406 0 0 Z " fill="#111111" transform="translate(237,335)"/>
<path d="M0 0 C0.5625 1.9375 0.5625 1.9375 1 4 C0 5 0 5 -3.0625 5.0625 C-4.031875 5.041875 -5.00125 5.02125 -6 5 C-6 5.66 -6 6.32 -6 7 C-4.865625 7.144375 -3.73125 7.28875 -2.5625 7.4375 C1 8 1 8 2 9 C1.4 15.6 1.4 15.6 -1 18 C-3.6015625 18.1953125 -3.6015625 18.1953125 -6.625 18.125 C-8.12933594 18.09792969 -8.12933594 18.09792969 -9.6640625 18.0703125 C-10.43492187 18.04710937 -11.20578125 18.02390625 -12 18 C-11.625 15.5625 -11.625 15.5625 -11 13 C-10.34 12.67 -9.68 12.34 -9 12 C-9.495 11.608125 -9.99 11.21625 -10.5 10.8125 C-12 9 -12 9 -12.4375 6.5625 C-12 4 -12 4 -10.5 1.6875 C-6.87174359 -0.76157308 -4.32159775 -0.28810652 0 0 Z " fill="#3D7143" transform="translate(315,335)"/>
<path d="M0 0 C0.5625 1.9375 0.5625 1.9375 1 4 C0 5 0 5 -3.0625 5.0625 C-4.031875 5.041875 -5.00125 5.02125 -6 5 C-6 5.66 -6 6.32 -6 7 C-4.865625 7.144375 -3.73125 7.28875 -2.5625 7.4375 C1 8 1 8 2 9 C1.4 15.6 1.4 15.6 -1 18 C-3.6015625 18.1953125 -3.6015625 18.1953125 -6.625 18.125 C-8.12933594 18.09792969 -8.12933594 18.09792969 -9.6640625 18.0703125 C-10.43492187 18.04710937 -11.20578125 18.02390625 -12 18 C-11.625 15.5625 -11.625 15.5625 -11 13 C-10.34 12.67 -9.68 12.34 -9 12 C-9.495 11.608125 -9.99 11.21625 -10.5 10.8125 C-12 9 -12 9 -12.4375 6.5625 C-12 4 -12 4 -10.5 1.6875 C-6.87174359 -0.76157308 -4.32159775 -0.28810652 0 0 Z " fill="#141414" transform="translate(197,335)"/>
<path d="M0 0 C1.65 0 3.3 0 5 0 C5.61675518 10.74181943 5.61675518 10.74181943 3.4375 15.1875 C0.22947403 17.57295521 -2.02293685 18 -6 18 C-8.6479735 16.23468433 -8.9769986 15.06900421 -10 12 C-10.0685495 10.10529184 -10.08480372 8.2083166 -10.0625 6.3125 C-10.05347656 5.31863281 -10.04445312 4.32476562 -10.03515625 3.30078125 C-10.02355469 2.54152344 -10.01195312 1.78226562 -10 1 C-8.35 1 -6.7 1 -5 1 C-4.34 4.3 -3.68 7.6 -3 11 C-2.34 10.67 -1.68 10.34 -1 10 C-0.53248212 7.64400765 -0.53248212 7.64400765 -0.375 4.9375 C-0.30023438 4.01839844 -0.22546875 3.09929687 -0.1484375 2.15234375 C-0.09945312 1.44207031 -0.05046875 0.73179687 0 0 Z " fill="#090909" transform="translate(210,335)"/>
<path d="M0 0 C0 1.65 0 3.3 0 5 C-1.65 5 -3.3 5 -5 5 C-5 9.29 -5 13.58 -5 18 C-6.98 18 -8.96 18 -11 18 C-11 14.04 -11 10.08 -11 6 C-12.65 6 -14.3 6 -16 6 C-16 4.35 -16 2.7 -16 1 C-10.63904667 -0.12862175 -5.44693314 -0.09688221 0 0 Z " fill="#141414" transform="translate(232,335)"/>
<path d="M0 0 C0 1.65 0 3.3 0 5 C-1.65 5 -3.3 5 -5 5 C-5 9.29 -5 13.58 -5 18 C-6.65 18 -8.3 18 -10 18 C-10 14.04 -10 10.08 -10 6 C-11.65 6 -13.3 6 -15 6 C-15 4.35 -15 2.7 -15 1 C-9.91913204 0.15318867 -5.15171623 -0.09038099 0 0 Z " fill="#316837" transform="translate(333,335)"/>
<path d="M0 0 C7.31715101 0.95044844 12.55297739 6.09002717 17.16796875 11.578125 C21.87800547 18.06535083 23.35897238 22.2592793 22.5625 30.3125 C22.46066406 31.38113281 22.35882813 32.44976562 22.25390625 33.55078125 C22.17011719 34.35902344 22.08632813 35.16726563 22 36 C21.67 36 21.34 36 21 36 C20.99613281 34.65808594 20.99613281 34.65808594 20.9921875 33.2890625 C20.72029621 24.78792805 19.79279213 18.45327871 14 12 C9.66142514 8.26667613 5.14160024 4.57080012 0 2 C0 1.34 0 0.68 0 0 Z " fill="#D8F1E4" transform="translate(342,304)"/>
<path d="M0 0 C0.33 0.99 0.66 1.98 1 3 C-1.97652832 4.58832888 -4.95669771 6.16970869 -7.9375 7.75 C-8.76830078 8.1934375 -9.59910156 8.636875 -10.45507812 9.09375 C-14.57753412 11.27528314 -18.72143034 13.40334556 -22.94140625 15.390625 C-23.65111572 15.72610352 -24.3608252 16.06158203 -25.09204102 16.40722656 C-27 17 -27 17 -30 16 C-28.51113281 15.27296875 -28.51113281 15.27296875 -26.9921875 14.53125 C-17.79498119 10.005496 -8.83754431 5.19205728 0 0 Z " fill="#35693B" transform="translate(337,252)"/>
<path d="M0 0 C0.66 1.32 1.32 2.64 2 4 C-2.78061035 10.97172343 -8.17323842 17.41708248 -16 21 C-16 20.01 -16 19.02 -16 18 C-14.4609375 16.640625 -14.4609375 16.640625 -12.375 15.25 C-6.76660875 11.24258568 -2.04774964 6.7575738 0 0 Z " fill="#EFEFEF" transform="translate(355,233)"/>
<path d="M0 0 C1.2065625 0.0309375 1.2065625 0.0309375 2.4375 0.0625 C2.1075 1.7125 1.7775 3.3625 1.4375 5.0625 C0.1175 5.3925 -1.2025 5.7225 -2.5625 6.0625 C-2.94468767 4.40635343 -3.27645102 2.73792976 -3.5625 1.0625 C-2.5625 0.0625 -2.5625 0.0625 0 0 Z " fill="#F5F8F6" transform="translate(293.5625,340.9375)"/>
<path d="M0 0 C0 2.97 0 5.94 0 9 C-0.99 9.495 -0.99 9.495 -2 10 C-5 6.375 -5 6.375 -5 3 C-1.55555556 0 -1.55555556 0 0 0 Z " fill="#ECF1ED" transform="translate(285,339)"/>
<path d="M0 0 C0.33 0 0.66 0 1 0 C1 2.64 1 5.28 1 8 C-1.97 7.01 -4.94 6.02 -8 5 C-8 4.34 -8 3.68 -8 3 C-6.865625 2.690625 -5.73125 2.38125 -4.5625 2.0625 C-1.21224901 1.37075469 -1.21224901 1.37075469 0 0 Z " fill="#E8E8E8" transform="translate(199,337)"/>
<path d="M0 0 C0.66 0 1.32 0 2 0 C4.55698285 3.78667689 4.03499684 7.4122334 3.625 11.75 C3.56828125 12.44738281 3.5115625 13.14476562 3.453125 13.86328125 C3.31232128 15.57639312 3.15754028 17.28834611 3 19 C2.67 19 2.34 19 2 19 C1.93941406 18.04738281 1.87882812 17.09476562 1.81640625 16.11328125 C1.73261719 14.85902344 1.64882813 13.60476563 1.5625 12.3125 C1.48128906 11.07113281 1.40007812 9.82976562 1.31640625 8.55078125 C1.05508683 5.61819663 0.65201621 2.86558383 0 0 Z " fill="#B0EACE" transform="translate(361,321)"/>
<path d="M0 0 C4 1 4 1 5.265625 2.62890625 C6.17708333 4.41927083 7.08854167 6.20963542 8 8 C7.01 8.495 7.01 8.495 6 9 C4.02 6.03 2.04 3.06 0 0 Z " fill="#E3F6ED" transform="translate(354,313)"/>
</svg>
